<svg xmlns="http://www.w3.org/2000/svg" viewBox="0 0 300 100">
  <defs>
    <linearGradient id="pkug" x1="0" y1="0" x2="0" y2="1">
      <stop offset="0" stop-color="#7a5230"/>
      <stop offset="1" stop-color="#3a2510"/>
    </linearGradient>
    <linearGradient id="kuk" x1="0" y1="0" x2="0" y2="1">
      <stop offset="0" stop-color="#5a3a18"/>
      <stop offset="1" stop-color="#2a160a"/>
    </linearGradient>
    <linearGradient id="kuc" x1="0" y1="0" x2="0" y2="1">
      <stop offset="0" stop-color="#b80a18"/>
      <stop offset="1" stop-color="#5a0408"/>
    </linearGradient>
  </defs>
  <ellipse cx="150" cy="92" rx="142" ry="5" fill="rgba(0,0,0,0.4)"/>
  <!-- Kutschenkorpus -->
  <path d="M 12 70 Q 12 32, 32 26 L 130 26 Q 140 32, 140 70 Z" fill="url(#kuc)" stroke="#1a0a04" stroke-width="2.5"/>
  <!-- Dach -->
  <path d="M 8 30 Q 76 14, 144 30 L 138 38 Q 76 24, 14 38 Z" fill="url(#kuk)" stroke="#1a0a04" stroke-width="2"/>
  <!-- Fenster -->
  <rect x="30" y="36" width="28" height="22" rx="2" fill="#fff7c0" opacity="0.7" stroke="#1a0a04" stroke-width="1.5"/>
  <line x1="44" y1="36" x2="44" y2="58" stroke="#1a0a04" stroke-width="1"/>
  <line x1="30" y1="47" x2="58" y2="47" stroke="#1a0a04" stroke-width="1"/>
  <!-- Tür -->
  <rect x="76" y="40" width="22" height="28" rx="2" fill="#3a1a08" stroke="#1a0a04" stroke-width="1.5"/>
  <circle cx="94" cy="54" r="1.5" fill="#d4af37"/>
  <rect x="80" y="44" width="14" height="10" fill="#fff7c0" opacity="0.5" stroke="#1a0a04" stroke-width="1"/>
  <!-- Gold-Verzierung -->
  <rect x="12" y="68" width="128" height="3" fill="#d4af37"/>
  <rect x="12" y="30" width="128" height="2" fill="#d4af37"/>
  <!-- Räder -->
  <circle cx="32" cy="76" r="16" fill="#3a1a08" stroke="#1a0a04" stroke-width="2"/>
  <circle cx="32" cy="76" r="3" fill="#5a3a18"/>
  <line x1="32" y1="60" x2="32" y2="92" stroke="#1a0a04" stroke-width="1"/>
  <line x1="16" y1="76" x2="48" y2="76" stroke="#1a0a04" stroke-width="1"/>
  <line x1="20" y1="64" x2="44" y2="88" stroke="#1a0a04" stroke-width="1"/>
  <line x1="44" y1="64" x2="20" y2="88" stroke="#1a0a04" stroke-width="1"/>
  <circle cx="120" cy="76" r="16" fill="#3a1a08" stroke="#1a0a04" stroke-width="2"/>
  <circle cx="120" cy="76" r="3" fill="#5a3a18"/>
  <line x1="120" y1="60" x2="120" y2="92" stroke="#1a0a04" stroke-width="1"/>
  <line x1="104" y1="76" x2="136" y2="76" stroke="#1a0a04" stroke-width="1"/>
  <line x1="108" y1="64" x2="132" y2="88" stroke="#1a0a04" stroke-width="1"/>
  <line x1="132" y1="64" x2="108" y2="88" stroke="#1a0a04" stroke-width="1"/>
  <!-- Deichsel -->
  <line x1="140" y1="58" x2="200" y2="60" stroke="#5a3a18" stroke-width="3" stroke-linecap="round"/>
  <!-- Pferd -->
  <ellipse cx="220" cy="56" rx="48" ry="20" fill="url(#pkug)" stroke="#1a0a04" stroke-width="2"/>
  <path d="M 258 52 Q 274 36, 282 30 L 286 38 Q 278 46, 264 56 Z" fill="url(#pkug)" stroke="#1a0a04" stroke-width="2"/>
  <path d="M 278 28 Q 296 22, 296 38 Q 296 48, 284 46 Q 276 44, 274 38 Z" fill="#7a5230" stroke="#1a0a04" stroke-width="2"/>
  <path d="M 280 28 L 282 20 L 286 28 Z" fill="#3a1a08" stroke="#1a0a04" stroke-width="1"/>
  <circle cx="288" cy="34" r="1.3" fill="#0a0805"/>
  <path d="M 258 40 Q 264 28, 274 26 L 276 34 Q 264 38, 260 48 Z" fill="#3a1a08" stroke="#1a0a04" stroke-width="1.2"/>
  <rect x="190" y="70" width="6" height="20" rx="2" fill="#3a2510" stroke="#1a0a04" stroke-width="1.5"/>
  <rect x="246" y="70" width="6" height="20" rx="2" fill="#3a2510" stroke="#1a0a04" stroke-width="1.5"/>
  <rect x="188" y="86" width="10" height="4" fill="#0a0805"/>
  <rect x="244" y="86" width="10" height="4" fill="#0a0805"/>
  <path d="M 178 50 Q 168 60, 168 76" stroke="#3a1a08" stroke-width="3" fill="none" stroke-linecap="round"/>
</svg>
